<mxfile host="app.diagrams.net" modified="2024-01-22T09:49:22.351Z" agent="Mozilla/5.0 (Windows NT 10.0; Win64; x64; rv:121.0) Gecko/20100101 Firefox/121.0" version="22.1.21" etag="PeAX9uetzWdDooyR6hGB" type="github">
  <diagram name="Page-1" id="a2hdS8nLZW8rHhPFH1wX">
    <mxGraphModel>
      <root>
        <mxCell id="0" />
        <mxCell id="1" parent="0" />
      </root>
    </mxGraphModel>
  </diagram>
</mxfile>
